<svg xmlns="http://www.w3.org/2000/svg" width="578.305" height="578.305" viewBox="0 0 578.305 578.305"><g fill="#fff"><path d="M533.32 160.38c.532-26.52-5.294-53.33-10.024-79.732-1.628-9.088-4.927-17.87-8.177-26.487-2.45-6.485-9.678-10.616-16.336-9.196-4.31.918-8.183 1.812-11.94 3.048-39.327 12.94-75.74 31.86-110.723 53.845-4.7 2.95-11.535 4.015-17.21 3.6-13.573-.993-27-4.37-40.57-5.014-33.58-1.59-67.09-.568-100.366 5.252-4.626.808-10.716.012-14.56-2.472-38.145-24.683-77.833-45.81-122.478-57.67-6.702-1.78-13.6-.838-15.294 1.824-1.035 1.628-1.97 3.317-2.485 5.128-4.823 16.946-10.54 33.807-13.342 51.114-3.34 20.654-6.554 41.934-4.97 62.564 1 12.97-2.582 20.938-9.668 30.038C11.407 226.758.703 261.86.047 300.35c-.562 32.92 3.795 65 13.82 96.47 15.355 48.22 45.006 84.406 89.65 107.95 36.71 19.357 76.71 26.818 117.64 28.256 36.893 1.292 73.857.196 110.79.404 37.02.208 73.533-3.09 108.95-14.633 35.446-11.55 66.12-30.184 89.92-59.486 34.377-42.324 45.08-92.184 47.277-144.963 1.684-40.36-6.542-78.33-30.178-111.347-9.584-13.397-14.957-24.903-14.596-42.62zm-71.273 309.26c-15.876 13.73-35.288 20.228-55.16 24.977-38.99 9.315-78.69 11.635-118.52 9.896-39.37 1.707-78.286-.747-116.59-9.762-28.257-6.644-54.053-17.82-72.033-42.073-28.61-38.6-35.924-112.057 11.353-152.148 12.056-10.22 25.502-16.71 41.39-17.718 17.534-1.12 35.074-3.304 52.595-3.096 44.2.526 88.378 2.724 132.57 3.054 20.185.146 40.51-4.56 60.546-3.348 18.207 1.102 37.35 4.455 53.875 11.78 27.546 12.216 42.374 36.984 46.854 65.993 6.67 43.133-2.13 82.393-36.88 112.448z"/><ellipse cx="390.026" cy="385.552" rx="42.124" ry="56.298"/><ellipse cx="189.028" cy="385.552" rx="42.13" ry="56.298"/></g></svg>