<svg xmlns="http://www.w3.org/2000/svg" viewBox="0 0 89.609 89.609"><path d="M4.754 22.748c0 7.468 2.494 12.86 7.412 16.027 4.025 2.594 8.7 2.98 11.13 2.98.59 0 1.06-.02 1.392-.043 0 0-.77 5.016 2.95 9.98h-.17C21.024 51.69 0 53.038 0 70.32 0 87.907 19.31 88.8 23.182 88.8c.303 0 .48-.006.48-.006.043 0 .32.01.79.01 2.487 0 8.913-.31 14.88-3.212C47.072 81.832 51 75.3 51 66.167c0-8.825-5.982-14.077-10.35-17.916-2.666-2.336-4.97-4.356-4.97-6.32 0-2 1.683-3.505 3.81-5.41 3.445-3.08 6.69-7.466 6.69-15.755 0-7.287-.944-12.178-6.765-15.28.607-.312 2.752-.538 3.814-.685C46.383 4.367 51 3.88 51 1.302V.805H28.006c-.23.006-23.252.86-23.252 21.943zM41.87 67.812c.44 7.033-5.575 12.222-14.606 12.88-9.174.67-16.727-3.46-17.166-10.484-.213-3.374 1.27-6.684 4.176-9.316 2.947-2.67 6.992-4.314 11.393-4.64a24.44 24.44 0 0 1 1.55-.053c8.488 0 14.238 4.987 14.654 11.61zm-6.003-49.876c2.256 7.934-1.15 16.23-6.578 17.76a7.11 7.11 0 0 1-1.924.264c-4.973 0-9.9-5.03-11.725-11.96-1.02-3.894-.937-7.296.233-10.568 1.15-3.22 3.215-5.393 5.814-6.124a7.064 7.064 0 0 1 1.924-.267c6.006 0 9.866 2.49 12.256 10.897zm38.742 17.28v-15h-9.5v15h-15v9.5h15v15h9.5v-15h15v-9.5h-15z" fill="#fff"/></svg>