<svg version="1" xmlns="http://www.w3.org/2000/svg" width="424" height="302.667" viewBox="0 0 318.000000 227.000000"><g fill="#4d4d4d"><path d="M6 117.1v100.2l10.3-.5c7-.3 11.2-1 13.5-2.2 6.4-3.3 6.3-2.4 7-70.9l.7-62.1L59 110c38.6 51.1 38.1 50.5 43.8 46.3 1.5-1 19.8-24.7 40.7-52.6 20.9-27.8 39.5-52.2 41.4-54.1 2-2.1 5-3.8 7.7-4.5 5.6-1.4 52.2-1.4 60 0 12 2.2 22.2 10 28.2 21.4 2.4 4.5 2.7 6.1 2.7 16 0 10.4-.2 11.3-3 16.4-6.3 11.5-19 20.3-31.8 22.2-3.4.5-14 .9-23.4.9-9.5 0-17.3.2-17.3.5 0 .7 31.2 42.3 52.1 69.5 12.1 15.8 16.7 21 19.6 22.4 2.9 1.4 6.9 1.9 16.8 2.3 7.2.2 13.6 0 14.3-.5 1.1-.7-.9-3.9-8.5-13.8-20.5-26.5-42.5-56.5-42-57 .3-.3 2.5-1 4.8-1.5 11.4-2.6 26.4-12.6 33.7-22.3 8.9-12 12.6-23.4 12.5-38.6 0-11.3-1.9-19.6-7-30-5-10.4-16.9-22.3-27.3-27.3-13.9-6.8-15.9-7-60-7.1-39.1-.1-39.5-.1-43.7 2.2-6.2 3.2-10.4 8.1-26.4 30-25.4 34.8-42.5 57.6-45.3 60.2-2.1 1.9-3.1 2.2-4.4 1.4-.9-.5-16.3-20.5-34.2-44.2C39.2 36.5 29.3 24.1 26.2 22c-4.3-2.8-11.7-5-17.2-5H6v100.1z"/><path d="M167 137.9c-15.8 19.7-14.8 16.4-15.6 50.5l-.7 28.9 9.4-.5c10-.5 15-2.3 16.9-5.9 1.6-3 2.2-30.5 1.3-60.3l-.8-25.8-10.5 13.1z"/></g></svg>