<svg xmlns="http://www.w3.org/2000/svg" viewBox="0 0 176.292 176.292"><path d="M144.768 78.685c4.32-16.125 2.103-32.968-6.244-47.426C127.392 11.976 106.634 0 84.347 0c-10.912 0-21.7 2.9-31.2 8.383-14.457 8.347-24.8 21.825-29.12 37.95-4.32 16.126-2.104 32.97 6.244 47.427 11.134 19.28 31.894 31.26 54.18 31.26a62.37 62.37 0 0 0 24.474-5.03l32.507 56.302 12.99-7.5-32.507-56.305c11.175-8.354 19.19-20.117 22.856-33.802zm-36.62 24.96a47.466 47.466 0 0 1-23.7 6.374c-16.943 0-32.726-9.106-41.187-23.76-6.342-10.99-8.027-23.79-4.743-36.044 3.283-12.256 11.143-22.5 22.13-28.843A47.467 47.467 0 0 1 84.348 15c16.944 0 32.726 9.104 41.187 23.76 6.344 10.987 8.03 23.788 4.746 36.043-3.284 12.256-11.144 22.5-22.132 28.843zM91.898 55.01h17.5v15h-17.5v17.5h-15v-17.5h-17.5v-15h17.5v-17.5h15v17.5z"/></svg>