<?xml version="1.0" standalone="no"?>
<!DOCTYPE svg PUBLIC "-//W3C//DTD SVG 20010904//EN"
 "http://www.w3.org/TR/2001/REC-SVG-20010904/DTD/svg10.dtd">
<svg version="1.0" xmlns="http://www.w3.org/2000/svg"
 width="318.000000pt" height="227.000000pt" viewBox="0 0 318.000000 227.000000"
 preserveAspectRatio="xMidYMid meet">
<metadata>
Created by potrace 1.13, written by Peter Selinger 2001-2015
</metadata>
<g transform="translate(0.000000,227.000000) scale(0.100000,-0.100000)"
fill="#000000" stroke="none">
<path fill='#4d4d4d' d="M60 1099 l0 -1002 103 5 c70 3 112 10 135 22 64 33 63 24 70 709 l7
621 215 -284 c386 -511 381 -505 438 -463 15 10 198 247 407 526 209 278 395
522 414 541 20 21 50 38 77 45 56 14 522 14 600 0 120 -22 222 -100 282 -214
24 -45 27 -61 27 -160 0 -104 -2 -113 -30 -164 -63 -115 -190 -203 -318 -222
-34 -5 -140 -9 -234 -9 -95 0 -173 -2 -173 -5 0 -7 312 -423 521 -695 121
-158 167 -210 196 -224 29 -14 69 -19 168 -23 72 -2 136 0 143 5 11 7 -9 39
-85 138 -205 265 -425 565 -420 570 3 3 25 10 48 15 114 26 264 126 337 223
89 120 126 234 125 386 0 113 -19 196 -70 300 -50 104 -169 223 -273 273 -139
68 -159 70 -600 71 -391 1 -395 1 -437 -22 -62 -32 -104 -81 -264 -300 -254
-348 -425 -576 -453 -602 -21 -19 -31 -22 -44 -14 -9 5 -163 205 -342 442
-238 317 -337 441 -368 462 -43 28 -117 50 -172 50 l-30 0 0 -1001z"/>
<path fill='#4d4d4d' d="M1670 891 c-158 -197 -148 -164 -156 -505 l-7 -289 94 5 c100 5 150
23 169 59 16 30 22 305 13 603 l-8 258 -105 -131z"/>
</g>
</svg>